<svg width="32" height="34" viewBox="0 0 32 34" fill="none" xmlns="http://www.w3.org/2000/svg">
<path d="M10.6667 0C11.6485 0 12.4444 0.795938 12.4444 1.77778V3.55556H19.5556V1.77778C19.5556 0.795938 20.3515 0 21.3333 0C22.3152 0 23.1111 0.795938 23.1111 1.77778V3.55556H28.4444C30.4081 3.55556 32 5.14743 32 7.11111V30.2222C32 32.1859 30.4081 33.7778 28.4444 33.7778H3.55556C1.59188 33.7778 0 32.1859 0 30.2222V7.11111C0 5.14743 1.59188 3.55556 3.55556 3.55556H8.88889V1.77778C8.88889 0.795938 9.68483 0 10.6667 0ZM8.88889 7.11111H3.55556V12.4444H28.4444V7.11111H23.1111V8.88889C23.1111 9.87073 22.3152 10.6667 21.3333 10.6667C20.3515 10.6667 19.5556 9.87073 19.5556 8.88889V7.11111H12.4444V8.88889C12.4444 9.87073 11.6485 10.6667 10.6667 10.6667C9.68483 10.6667 8.88889 9.87073 8.88889 8.88889V7.11111ZM28.4444 16H3.55556V30.2222H28.4444V16Z" fill="#0D0D0D"/>
</svg>
