<svg width="32" height="36" viewBox="0 0 32 36" fill="none" xmlns="http://www.w3.org/2000/svg">
<path d="M10 4C8.89543 4 8 4.89543 8 6C8 7.10457 8.89543 8 10 8C11.1046 8 12 7.10457 12 6C12 4.89543 11.1046 4 10 4ZM4.34141 4C5.16508 1.66962 7.38756 0 10 0C12.6124 0 14.8349 1.66962 15.6586 4H30C31.1046 4 32 4.89543 32 6C32 7.10457 31.1046 8 30 8H15.6586C14.8349 10.3304 12.6124 12 10 12C7.38756 12 5.16508 10.3304 4.34141 8H2C0.89543 8 0 7.10457 0 6C0 4.89543 0.89543 4 2 4H4.34141ZM22 16C20.8954 16 20 16.8954 20 18C20 19.1046 20.8954 20 22 20C23.1046 20 24 19.1046 24 18C24 16.8954 23.1046 16 22 16ZM16.3414 16C17.1651 13.6696 19.3876 12 22 12C24.6124 12 26.8349 13.6696 27.6586 16H30C31.1046 16 32 16.8954 32 18C32 19.1046 31.1046 20 30 20H27.6586C26.8349 22.3304 24.6124 24 22 24C19.3876 24 17.1651 22.3304 16.3414 20H2C0.89543 20 0 19.1046 0 18C0 16.8954 0.89543 16 2 16H16.3414ZM10 28C8.89543 28 8 28.8954 8 30C8 31.1046 8.89543 32 10 32C11.1046 32 12 31.1046 12 30C12 28.8954 11.1046 28 10 28ZM4.34141 28C5.16508 25.6696 7.38756 24 10 24C12.6124 24 14.8349 25.6696 15.6586 28H30C31.1046 28 32 28.8954 32 30C32 31.1046 31.1046 32 30 32H15.6586C14.8349 34.3304 12.6124 36 10 36C7.38756 36 5.16508 34.3304 4.34141 32H2C0.89543 32 0 31.1046 0 30C0 28.8954 0.89543 28 2 28H4.34141Z" fill="#0D0D0D"/>
</svg>
