<svg xmlns="http://www.w3.org/2000/svg" width="21.964" height="33.101" viewBox="0 0 21.964 33.101">
  <g id="Group_193" data-name="Group 193" transform="translate(-47.905 -364.333)">
    <path id="Icon_awesome-heart" data-name="Icon awesome-heart" d="M19.831,3.562a5.866,5.866,0,0,0-8,.583l-.845.871-.845-.871a5.866,5.866,0,0,0-8-.583,6.16,6.16,0,0,0-.425,8.919l8.3,8.571a1.345,1.345,0,0,0,1.943,0l8.3-8.571a6.156,6.156,0,0,0-.42-8.919Z" transform="translate(47.906 375.967)" fill="#002651"/>
    <path id="Icon_open-audio" data-name="Icon open-audio" d="M8.257,0,5.466,2.791a11.33,11.33,0,0,1,3.411,8.1A11.6,11.6,0,0,1,5.466,19.15l2.791,2.791a15.593,15.593,0,0,0,4.5-11.009A15.159,15.159,0,0,0,8.257.039ZM2.675,5.466,0,8.257a3.652,3.652,0,0,1,1.085,2.675A3.926,3.926,0,0,1,0,13.723l2.675,2.791a8.016,8.016,0,0,0,2.287-5.582A7.738,7.738,0,0,0,2.675,5.466Z" transform="translate(47.907 377.087) rotate(-90)" fill="#002651"/>
  </g>
</svg>
