<svg xmlns="http://www.w3.org/2000/svg" width="61.489" height="53.803" viewBox="0 0 61.489 53.803">
  <path id="Icon_awesome-camera" data-name="Icon awesome-camera" d="M61.489,15.7V50.288a5.766,5.766,0,0,1-5.765,5.765H5.765A5.766,5.766,0,0,1,0,50.288V15.7A5.766,5.766,0,0,1,5.765,9.936H16.333L17.81,5.985A5.757,5.757,0,0,1,23.2,2.25H38.274a5.757,5.757,0,0,1,5.392,3.735l1.489,3.951H55.724A5.766,5.766,0,0,1,61.489,15.7ZM45.156,32.994A14.411,14.411,0,1,0,30.744,47.406,14.423,14.423,0,0,0,45.156,32.994Zm-3.843,0A10.568,10.568,0,1,1,30.744,22.426,10.584,10.584,0,0,1,41.313,32.994Z" transform="translate(0 -2.25)"/>
</svg>
