<svg xmlns="http://www.w3.org/2000/svg" width="16.355" height="26.168" viewBox="0 0 16.355 26.168">
  <path id="Icon_metro-location" data-name="Icon metro-location" d="M16.532,1.928a8.177,8.177,0,0,0-8.177,8.177c0,8.177,8.177,17.99,8.177,17.99s8.177-9.813,8.177-17.99a8.177,8.177,0,0,0-8.177-8.177Zm0,13.186a5.009,5.009,0,1,1,5.009-5.009A5.009,5.009,0,0,1,16.532,15.114Zm-3.169-5.009a3.169,3.169,0,1,1,3.169,3.169A3.169,3.169,0,0,1,13.363,10.105Z" transform="translate(-8.355 -1.928)" fill="#002651"/>
</svg>
