<svg xmlns="http://www.w3.org/2000/svg" width="29" height="32" viewBox="0 0 29 32">
  <g id="Icon_feather-share-2" data-name="Icon feather-share-2" transform="translate(-3.5 -2)">
    <path id="Path_47" data-name="Path 47" d="M31.5,7.5A4.5,4.5,0,1,1,27,3a4.5,4.5,0,0,1,4.5,4.5Z" fill="none" stroke="#767373" stroke-linecap="round" stroke-linejoin="round" stroke-width="2"/>
    <path id="Path_48" data-name="Path 48" d="M13.5,18A4.5,4.5,0,1,1,9,13.5,4.5,4.5,0,0,1,13.5,18Z" fill="none" stroke="#767373" stroke-linecap="round" stroke-linejoin="round" stroke-width="2"/>
    <path id="Path_49" data-name="Path 49" d="M31.5,28.5A4.5,4.5,0,1,1,27,24,4.5,4.5,0,0,1,31.5,28.5Z" fill="none" stroke="#767373" stroke-linecap="round" stroke-linejoin="round" stroke-width="2"/>
    <path id="Path_50" data-name="Path 50" d="M12.885,20.265l10.245,5.97" fill="none" stroke="#767373" stroke-linecap="round" stroke-linejoin="round" stroke-width="2"/>
    <path id="Path_51" data-name="Path 51" d="M23.115,9.765l-10.23,5.97" fill="none" stroke="#767373" stroke-linecap="round" stroke-linejoin="round" stroke-width="2"/>
  </g>
</svg>
