<svg xmlns="http://www.w3.org/2000/svg" width="24.73" height="30.931" viewBox="0 0 24.73 30.931">
  <g id="Icon_ionic-ios-notifications" data-name="Icon ionic-ios-notifications" transform="translate(-6.761 -3.93)">
    <path id="Path_39" data-name="Path 39" d="M18.33,32.433c2.4,0,3.718-1.7,3.718-4.1H14.6C14.6,30.732,15.918,32.433,18.33,32.433Z" transform="translate(0.78 2.428)" fill="#908d8d"/>
    <path id="Path_40" data-name="Path 40" d="M31.178,26.836c-1.191-1.569-3.533-2.489-3.533-9.516,0-7.213-3.185-10.112-6.154-10.807-.278-.07-.479-.162-.479-.456V5.832a1.886,1.886,0,1,0-3.773,0v.224c0,.286-.2.387-.479.456-2.976.7-6.154,3.595-6.154,10.807,0,7.027-2.342,7.939-3.533,9.516A1.535,1.535,0,0,0,8.3,29.295H29.956A1.535,1.535,0,0,0,31.178,26.836Z" transform="translate(0 0)" fill="#908d8d"/>
  </g>
</svg>
