<svg xmlns="http://www.w3.org/2000/svg" xmlns:xlink="http://www.w3.org/1999/xlink" width="54" height="48" viewBox="0 0 54 48">
  <defs>
    <clipPath id="clip-path">
      <rect id="Rectangle_20" data-name="Rectangle 20" width="54" height="48" transform="translate(0.001)" fill="#fff" stroke="#fff" stroke-width="1"/>
    </clipPath>
  </defs>
  <g id="Mask_Group_1" data-name="Mask Group 1" transform="translate(-0.001)" clip-path="url(#clip-path)">
    <g id="mic" transform="translate(6.375)">
      <g id="Group_17" data-name="Group 17" transform="translate(17.129 19.327)">
        <g id="Group_16" data-name="Group 16" transform="translate(0)">
          <path id="Path_9" data-name="Path 9" d="M27.3,27.4a2.3,2.3,0,0,1,3.523,0l3.3,3.721a3.079,3.079,0,0,1,0,3.977,2.3,2.3,0,0,1-3.523,0l-3.3-3.721A3.079,3.079,0,0,1,27.3,27.4Zm.881,2.983,3.3,3.721a1.147,1.147,0,0,0,1.761,0,1.54,1.54,0,0,0,0-1.989l-3.3-3.721a1.147,1.147,0,0,0-1.761,0A1.539,1.539,0,0,0,28.179,30.381Z" transform="translate(-26.57 -26.575)" fill="#fff"/>
        </g>
      </g>
      <g id="Group_19" data-name="Group 19" transform="translate(0)">
        <g id="Group_18" data-name="Group 18">
          <path id="Path_10" data-name="Path 10" d="M1.3,6.206A10.268,10.268,0,0,1,10.535,0a9.594,9.594,0,0,1,5.352,1.651.558.558,0,0,1,.181-.03.588.588,0,0,1,.441.205.77.77,0,0,1,0,.995l-.146.164L16.353,3l-4.7,5.31L2.664,18.452l-.009.01-.146.165h0l1.761,1.987h0l.106-.119.008-.009L18.27,4.81l-.692-.781a.768.768,0,0,1,0-.994.573.573,0,0,1,.88,0l.692.781a1.506,1.506,0,0,1,.365.994,1.55,1.55,0,0,1-.135.633,12.969,12.969,0,0,1,1.675,6.174.582.582,0,0,1,.487.2.769.769,0,0,1,0,.994l-.314.355,20.51,26.1a3.772,3.772,0,0,1,.785,2.333,3.906,3.906,0,0,1-.228,1.325,3.555,3.555,0,0,1-.683,1.162L39.059,46.97a3.085,3.085,0,0,1-1.027.772A2.8,2.8,0,0,1,36.86,48h-.006a2.912,2.912,0,0,1-2.063-.886l-21.659-21.7a.769.769,0,0,1-.052-.993.6.6,0,0,1,.466-.236.584.584,0,0,1,.414.177l21.658,21.7a1.717,1.717,0,0,0,2.561-.086l2.552-2.882a2.249,2.249,0,0,0,.547-1.493,2.277,2.277,0,0,0-.471-1.4L20.347,14.166,11.36,24.312a.574.574,0,0,1-.881,0,.755.755,0,0,1-.18-.552,9.67,9.67,0,0,1-5.468-1.89,1.131,1.131,0,0,1-.56.153H4.267a1.182,1.182,0,0,1-.877-.412L1.627,19.622a1.506,1.506,0,0,1-.365-.994,1.543,1.543,0,0,1,.189-.742A12.9,12.9,0,0,1,0,12.149,13.263,13.263,0,0,1,1.3,6.206ZM11.366,22.317l8.411-9.5A11.579,11.579,0,0,0,18.51,6.527L5.791,20.887A8.431,8.431,0,0,0,11.366,22.317Zm-9.017-5.5L14.906,2.641a8.42,8.42,0,0,0-4.371-1.235A9.051,9.051,0,0,0,2.394,6.877,11.492,11.492,0,0,0,2.349,16.819Z" transform="translate(0 0)" fill="#fff"/>
        </g>
      </g>
    </g>
  </g>
</svg>
